<?xml version="1.0" standalone="no"?>
<!DOCTYPE svg PUBLIC "-//W3C//DTD SVG 20010904//EN"
 "http://www.w3.org/TR/2001/REC-SVG-20010904/DTD/svg10.dtd">
<svg version="1.0" xmlns="http://www.w3.org/2000/svg"
 width="500.000000pt" height="500.000000pt" viewBox="0 0 500.000000 500.000000"
 preserveAspectRatio="xMidYMid meet">

<g transform="translate(0.000000,500.000000) scale(0.100000,-0.100000)"
fill="#000000" stroke="none">
<path d="M2130 4723 c-25 -9 -68 -54 -79 -82 -8 -21 -101 -519 -101 -542 0 -4
-23 -10 -52 -13 -145 -20 -247 -122 -248 -247 l0 -47 -192 -5 c-218 -5 -263
-14 -398 -78 -209 -99 -360 -271 -432 -489 -27 -83 -31 -113 -36 -237 -2 -79
-6 -143 -7 -143 -2 0 -47 -9 -100 -20 -53 -11 -106 -20 -116 -20 -18 0 -19 17
-19 528 l0 527 48 17 c157 56 234 248 159 400 -30 62 -74 106 -140 140 -60 31
-184 31 -244 0 -66 -34 -110 -78 -140 -140 -75 -152 2 -344 159 -400 l48 -17
0 -541 0 -542 -37 -7 c-77 -14 -140 -62 -179 -135 -17 -32 -19 -62 -19 -341
l0 -306 30 -49 c51 -82 91 -99 339 -147 l216 -42 0 -366 c0 -387 5 -447 49
-573 68 -195 220 -361 416 -456 175 -85 88 -80 1448 -80 1174 0 1206 0 1283
20 247 63 460 245 557 476 59 140 60 147 64 579 l4 401 216 41 c247 48 287 65
338 147 l30 49 0 306 c0 296 -1 307 -22 347 -32 59 -85 101 -153 121 l-60 18
0 541 0 541 39 12 c64 19 135 82 167 148 23 46 28 71 28 128 0 118 -57 210
-167 267 -60 31 -184 31 -244 0 -66 -34 -110 -78 -140 -140 -75 -152 2 -344
159 -400 l48 -17 0 -527 c0 -511 -1 -528 -19 -528 -10 0 -63 9 -116 20 -53 11
-98 20 -100 20 -1 0 -5 60 -8 133 -11 257 -89 433 -265 599 -62 58 -105 87
-184 127 -149 74 -190 83 -415 88 l-193 5 0 38 c0 128 -106 238 -247 256 -29
4 -53 9 -53 12 0 23 -93 523 -101 543 -6 15 -24 40 -40 55 l-30 29 -367 2
c-202 1 -374 -1 -382 -4z m-1775 -354 c96 -24 168 -120 168 -224 1 -131 -96
-227 -228 -227 -152 0 -256 131 -224 282 9 44 21 63 63 105 68 69 131 87 221
64z m4410 0 c96 -24 168 -120 168 -224 1 -131 -96 -227 -228 -227 -152 0 -256
131 -224 282 9 44 21 63 63 105 68 69 131 87 221 64z m-1558 -385 c45 -36 83
-105 83 -151 l0 -33 -790 0 -790 0 0 33 c0 40 30 105 61 134 61 56 29 53 741
51 l656 -3 39 -31z m555 -333 c235 -60 419 -236 500 -476 l23 -70 3 -1047 c3
-1182 6 -1125 -74 -1287 -38 -77 -62 -109 -128 -175 -93 -93 -160 -136 -283
-180 l-88 -31 -1215 0 -1215 0 -77 26 c-182 63 -336 190 -416 346 -86 167 -82
99 -82 1273 0 992 1 1040 19 1112 63 247 259 444 505 508 67 18 132 19 1262
19 1145 1 1194 0 1266 -18z m-3172 -1356 c0 -234 -3 -425 -7 -425 -34 0 -393
76 -410 86 -51 32 -54 53 -51 349 l3 275 30 30 c28 28 47 34 225 70 107 21
198 39 203 39 4 1 7 -190 7 -424z m4055 379 c153 -31 173 -37 200 -64 l30 -30
3 -263 c3 -273 -2 -319 -38 -352 -13 -11 -84 -30 -212 -56 -106 -21 -199 -38
-205 -39 -10 0 -13 91 -13 425 l0 425 33 -7 c17 -3 108 -21 202 -39z"/>
<path d="M1570 3083 c-160 -27 -327 -147 -394 -286 -102 -208 -63 -450 99
-612 238 -238 633 -195 817 89 131 202 101 480 -70 654 -113 116 -301 180
-452 155z m220 -80 c98 -32 194 -106 249 -192 172 -267 32 -626 -274 -706
-164 -42 -323 2 -446 124 -97 97 -138 196 -139 332 0 127 69 275 164 354 122
100 300 135 446 88z"/>
<path d="M1560 2779 c-108 -43 -171 -173 -139 -286 18 -66 96 -144 162 -162
96 -27 202 12 261 97 24 34 31 56 34 106 2 36 -1 81 -8 101 -16 50 -75 114
-125 136 -44 20 -143 24 -185 8z m167 -65 c74 -36 111 -133 84 -217 -18 -52
-80 -104 -134 -112 -196 -30 -283 223 -112 326 38 24 115 25 162 3z"/>
<path d="M3244 3076 c-362 -83 -535 -495 -336 -802 184 -283 575 -327 814 -91
166 163 204 407 97 619 -103 204 -355 324 -575 274z m231 -68 c157 -40 292
-178 330 -339 39 -169 -2 -318 -124 -439 -283 -283 -752 -111 -796 291 -14
127 45 277 146 374 119 114 279 154 444 113z"/>
<path d="M3255 2772 c-50 -24 -109 -88 -125 -137 -7 -20 -10 -65 -8 -101 3
-50 10 -72 34 -106 59 -85 165 -124 261 -97 66 18 144 96 162 162 27 96 -12
202 -97 262 -37 25 -54 30 -115 33 -54 2 -82 -2 -112 -16z m174 -56 c48 -25
89 -81 97 -131 24 -161 -166 -267 -286 -159 -49 45 -64 81 -58 148 5 63 42
120 92 142 41 18 120 18 155 0z"/>
<path d="M1420 1545 c-9 -10 -11 -72 -8 -232 3 -193 6 -224 25 -270 42 -106
119 -184 221 -225 l57 -23 785 0 785 0 60 24 c83 34 183 133 215 216 22 55 24
77 28 278 3 160 1 222 -8 232 -19 22 -2141 22 -2160 0z m348 -160 c3 -108 10
-129 38 -118 10 4 14 36 16 116 l3 112 148 3 147 3 0 -326 0 -326 -147 3 -148
3 -5 170 c-5 166 -5 170 -27 173 -22 3 -23 3 -25 -170 l-3 -173 -30 3 c-85 8
-195 96 -238 190 -20 42 -22 67 -25 250 l-3 203 148 -3 148 -3 3 -110z m704
-117 l3 -233 25 0 25 0 3 233 2 232 145 0 145 0 0 -73 c0 -80 14 -113 43 -101
14 5 17 20 17 90 l0 84 150 0 150 0 0 -325 0 -325 -150 0 -150 0 -2 202 c-3
189 -4 203 -22 206 -10 2 -22 -2 -27 -10 -5 -7 -9 -100 -9 -205 l0 -193 -145
0 -145 0 0 49 c0 31 -5 53 -15 61 -26 21 -45 -5 -45 -61 l0 -49 -145 0 -145 0
0 325 0 325 145 0 145 0 2 -232z m1056 30 c-3 -183 -5 -208 -25 -250 -43 -94
-153 -182 -238 -190 l-30 -3 -3 310 c-1 170 0 315 3 322 3 10 42 13 150 13
l146 0 -3 -202z"/>
</g>
</svg>
